<?xml version="1.0" standalone="no"?>
<!DOCTYPE svg PUBLIC "-//W3C//DTD SVG 20010904//EN"
 "http://www.w3.org/TR/2001/REC-SVG-20010904/DTD/svg10.dtd">
<svg version="1.0" xmlns="http://www.w3.org/2000/svg"
 width="128.000000pt" height="128.000000pt" viewBox="0 0 128.000000 128.000000"
 preserveAspectRatio="xMidYMid meet">
<metadata>
Created by potrace 1.14, written by Peter Selinger 2001-2017
</metadata>
<g transform="translate(0.000000,128.000000) scale(0.100000,-0.100000)"
fill="#000000" stroke="none">
<path d="M618 984 c-2 -1 -26 -6 -53 -9 -53 -8 -118 -26 -175 -52 -185 -81
-309 -280 -366 -583 -8 -46 -12 -142 -7 -157 8 -21 101 -73 176 -97 62 -20
108 -30 248 -52 15 -2 87 -4 160 -5 80 -1 154 -7 183 -15 51 -14 94 -10 112
11 5 8 45 17 90 21 92 9 106 9 159 0 82 -14 111 65 60 169 l-24 49 22 31 c66
88 92 239 60 348 -64 220 -245 336 -530 342 -62 1 -114 1 -115 -1z"/>
</g>
</svg>
